Coordinates
version=1
nRows=29
nColumns=18
inDegrees=yes

Units are S.I. units (second, meters, Newtons, ...)
Angles are in degrees.

endheader
time	ground_thorax_rot_x	ground_thorax_rot_y	ground_thorax_rot_z	ground_thorax_tx	ground_thorax_ty	ground_thorax_tz	clav_prot	clav_elev	scapula_abduction	scapula_elevation	scapula_upward_rot	scapula_winging	plane_elv	shoulder_elv	axial_rot	elbow_flexion	pro_sup
      0.00000000	      1.55359642	     -4.97222067	     -9.43039864	     -0.00423131	      0.00403036	     -0.00078352	    -22.15731968	     -6.09979389	    -12.69978316	     -4.75191709	     10.59837355	      6.57819550	    -25.54711753	     13.58459077	     49.03318456	      0.00000000	     34.32000000
      0.01000000	      1.69554151	     -4.77398136	     -9.53053245	     -0.00423131	      0.00403036	     -0.00078352	    -22.35694059	     -6.11065997	    -13.13350508	     -4.72750360	     10.43260445	      6.63316314	    -23.40227076	     14.51636493	     39.84949210	      0.00000000	     34.32000000
      0.02000000	      1.64048603	     -4.77856204	     -9.49866888	     -0.00423131	      0.00403036	     -0.00078352	    -22.34910945	     -6.18008323	    -13.12256959	     -4.77216267	     10.40018332	      6.66623224	    -23.81364106	     14.60290234	     40.22079499	      0.00000000	     34.32000000
      0.03000000	      1.67132615	     -4.79425511	     -9.53264044	     -0.00423131	      0.00403036	     -0.00078352	    -22.33324999	     -6.20500744	    -13.10893240	     -4.78075241	     10.36436117	      6.68265807	    -23.62020924	     14.65767745	     40.01488425	      0.00000000	     34.32000000
      0.04000000	      1.53221562	     -4.81915050	     -9.47153296	     -0.00423131	      0.00403036	     -0.00078352	    -22.29271559	     -6.36861455	    -13.10602551	     -4.85390211	     10.17512408	      6.78546503	    -23.96733669	     14.81082175	     39.35893143	      0.00000000	     34.32000000
      0.05000000	      1.60518162	     -4.88137532	     -9.59865853	     -0.00423131	      0.00403036	     -0.00078352	    -22.27500686	     -6.37576125	    -12.92932726	     -4.92961651	     10.43810084	      6.72399654	    -24.14206864	     14.78313298	     38.41359060	      0.00000000	     34.32000000
      0.06000000	      1.64531371	     -4.95133150	     -9.54052678	     -0.00423131	      0.00403036	     -0.00078352	    -22.17572828	     -6.34028559	    -12.82401558	     -4.86745796	     10.33224368	      6.73056492	    -23.66531012	     15.02355699	     37.32887010	      0.00000000	     34.32000000
      0.07000000	      1.45871239	     -4.83455594	     -9.50837523	     -0.00423131	      0.00403036	     -0.00078352	    -22.23771988	     -6.52132198	    -12.97192650	     -4.97154176	     10.18421097	      6.83623157	    -24.31745557	     15.00906983	     38.14817736	      0.00000000	     34.32000000
      0.08000000	      1.22085971	     -4.76650008	     -9.54029348	     -0.00423131	      0.00403036	     -0.00078352	    -22.28883965	     -6.78661303	    -13.28070231	     -5.04188998	      9.67321774	      7.06000172	    -23.23719241	     15.42662652	     35.66670148	      0.00000000	     34.32000000
      0.09000000	      1.58947238	     -4.72672446	     -9.52507086	     -0.00423131	      0.00403036	     -0.00078352	    -22.44610393	     -6.33406376	    -13.24500697	     -4.90220136	     10.41819277	      6.72294098	    -24.58910838	     14.57019085	     40.19551571	      0.00000000	     34.32000000
      0.10000000	      1.57158829	     -4.70403918	     -9.56096769	     -0.00423131	      0.00403036	     -0.00078352	    -22.47140910	     -6.42487149	    -13.40846908	     -4.90508049	     10.16304445	      6.81872605	    -23.45678247	     14.95445988	     37.21508490	      0.00000000	     34.32000000
      0.11000000	      1.40553277	     -4.70111219	     -9.54872767	     -0.00423131	      0.00403036	     -0.00078352	    -22.45824992	     -6.64453536	    -13.43017540	     -5.02853272	      9.99245941	      6.94011621	    -24.03009303	     14.94235289	     38.17962128	      0.00000000	     34.32000000
      0.12000000	      1.52302612	     -4.75220064	     -9.59330595	     -0.00423131	      0.00403036	     -0.00078352	    -22.41675881	     -6.56462519	    -13.35060566	     -4.97678024	     10.03964341	      6.89707433	    -23.63926763	     15.01200923	     37.99955670	      0.00000000	     34.32000000
      0.13000000	      1.50054751	     -4.86408697	     -9.63255802	     -0.00423131	      0.00403036	     -0.00078352	    -22.34130084	     -6.62478778	    -13.25723452	     -4.99399688	      9.94779552	      6.93714083	    -23.14042848	     15.17721757	     36.69263297	      0.00000000	     34.32000000
      0.14000000	      1.50678820	     -5.00562472	     -9.57473070	     -0.00423131	      0.00403036	     -0.00078352	    -22.17627381	     -6.56196240	    -12.98962096	     -4.93352700	      9.94153728	      6.90559833	    -23.02112898	     15.30453242	     35.54518398	      0.00000000	     34.32000000
      0.15000000	      1.62867411	     -4.99071508	     -9.53236303	     -0.00423131	      0.00403036	     -0.00078352	    -22.20354562	     -6.31333068	    -12.91699782	     -4.82900455	     10.26137580	      6.73919105	    -24.15545475	     14.52075322	     41.58335435	      0.00000000	     34.32000000
      0.16000000	      1.48003813	     -4.99348806	     -9.50940106	     -0.00423131	      0.00403036	     -0.00078352	    -22.13663376	     -6.43498371	    -12.89339144	     -4.86038686	     10.04396035	      6.83194032	    -23.83564949	     14.85016596	     38.39214472	      0.00000000	     34.32000000
      0.17000000	      1.62872379	     -5.02683955	     -9.52424182	     -0.00423131	      0.00403036	     -0.00078352	    -22.12458771	     -6.26460756	    -12.84450225	     -4.76028464	     10.16485636	      6.74006637	    -23.41186062	     14.91064088	     37.81746365	      0.00000000	     34.32000000
      0.18000000	      1.64713895	     -5.01608694	     -9.49600225	     -0.00423131	      0.00403036	     -0.00078352	    -22.11085869	     -6.28689254	    -12.77067805	     -4.79908227	     10.24712512	      6.72757002	    -24.04108679	     14.91955734	     37.80767948	      0.00000000	     34.32000000
      0.19000000	      1.63785302	     -5.07068870	     -9.45251767	     -0.00423131	      0.00403036	     -0.00078352	    -22.07384214	     -6.32915894	    -12.73711627	     -4.80994222	     10.17454898	      6.75807882	    -23.98039646	     15.03733972	     37.52867912	      0.00000000	     34.32000000
      0.20000000	      1.41523526	     -5.09058179	     -9.61970889	     -0.00423131	      0.00403036	     -0.00078352	    -22.07263306	     -6.69939846	    -12.83616454	     -5.00625567	      9.83926016	      6.97455431	    -23.15199361	     15.56019312	     32.82769398	      0.00000000	     34.32000000
      0.21000000	      1.60102111	     -5.07824377	     -9.54079412	     -0.00423131	      0.00403036	     -0.00078352	    -22.22648044	     -6.33334490	    -12.89149601	     -4.87605521	     10.37231794	      6.72159374	    -24.73571175	     14.40397392	     42.37005312	      0.00000000	     34.32000000
      0.22000000	      1.55154193	     -5.17158786	     -9.57610363	     -0.00423131	      0.00403036	     -0.00078352	    -22.18459625	     -6.31785205	    -12.84220524	     -4.85176466	     10.33642188	      6.72193730	    -24.23578359	     14.34952156	     41.85129350	      0.00000000	     34.32000000
      0.23000000	      1.58156238	     -5.12607462	     -9.55222743	     -0.00423131	      0.00403036	     -0.00078352	    -22.21996784	     -6.24047251	    -12.87871287	     -4.81435009	     10.41221914	      6.67727141	    -24.45893681	     14.25599544	     42.44213954	      0.00000000	     34.32000000
      0.24000000	      1.53663122	     -5.10243248	     -9.55543214	     -0.00423131	      0.00403036	     -0.00078352	    -22.21893852	     -6.22668389	    -12.87841690	     -4.80450133	     10.41547877	      6.67174703	    -24.45429282	     14.23922522	     42.44209988	      0.00000000	     34.32000000
      0.25000000	      1.55117088	     -5.01352872	     -9.54410360	     -0.00423131	      0.00403036	     -0.00078352	    -22.30800153	     -6.14157348	    -13.00269038	     -4.76787787	     10.50412373	      6.62467446	    -24.44575619	     14.18315141	     41.76383311	      0.00000000	     34.32000000
      0.26000000	      1.54887095	     -4.99364422	     -9.53512099	     -0.00423131	      0.00403036	     -0.00078352	    -22.31355516	     -6.10557822	    -12.99666796	     -4.75198070	     10.54725104	      6.60160155	    -24.58768125	     14.17889553	     41.67997384	      0.00000000	     34.32000000
      0.27000000	      1.58147496	     -5.07325244	     -9.65293202	     -0.00423131	      0.00403036	     -0.00078352	    -22.21099478	     -6.18662198	    -12.88823428	     -4.76583899	     10.38915243	      6.66308852	    -22.97952748	     14.99594882	     32.95516490	      0.00000000	     34.32000000
      0.28000000	      1.76579433	     -5.12101748	     -9.64473818	     -0.00423131	      0.00403036	     -0.00078352	    -22.19371448	     -6.00307514	    -12.91953980	     -4.61299748	     10.35399465	      6.60484702	    -21.97930391	     15.28833648	     31.63882439	      0.00000000	     34.32000000
